<mxfile host="app.diagrams.net" modified="2022-02-24T14:19:01.374Z" agent="5.0 (Windows NT 10.0; Win64; x64) AppleWebKit/537.36 (KHTML, like Gecko) Chrome/98.0.4758.102 Safari/537.36" etag="lZtakeXByBU39fcwQxbe" version="15.7.1" type="github">
  <diagram name="Page-1" id="c7488fd3-1785-93aa-aadb-54a6760d102a">
    <mxGraphModel dx="1422" dy="794" grid="1" gridSize="10" guides="1" tooltips="1" connect="1" arrows="1" fold="1" page="1" pageScale="1" pageWidth="1100" pageHeight="850" background="none" math="0" shadow="0">
      <root>
        <mxCell id="0" />
        <mxCell id="1" parent="0" />
        <mxCell id="yQ1UEBd4T4hU5DyZiee6-8" style="edgeStyle=orthogonalEdgeStyle;rounded=0;orthogonalLoop=1;jettySize=auto;html=1;exitX=1;exitY=0.5;exitDx=0;exitDy=0;exitPerimeter=0;entryX=0;entryY=0.5;entryDx=0;entryDy=0;" edge="1" parent="1" source="yQ1UEBd4T4hU5DyZiee6-1" target="yQ1UEBd4T4hU5DyZiee6-5">
          <mxGeometry relative="1" as="geometry" />
        </mxCell>
        <mxCell id="yQ1UEBd4T4hU5DyZiee6-1" value="Start game&lt;br&gt;(Reset board)" style="strokeWidth=2;html=1;shape=mxgraph.flowchart.start_2;whiteSpace=wrap;" vertex="1" parent="1">
          <mxGeometry x="10" y="10" width="100" height="100" as="geometry" />
        </mxCell>
        <mxCell id="yQ1UEBd4T4hU5DyZiee6-12" style="edgeStyle=orthogonalEdgeStyle;rounded=0;orthogonalLoop=1;jettySize=auto;html=1;exitX=1;exitY=0.5;exitDx=0;exitDy=0;entryX=0;entryY=0.5;entryDx=0;entryDy=0;entryPerimeter=0;" edge="1" parent="1" source="yQ1UEBd4T4hU5DyZiee6-5" target="yQ1UEBd4T4hU5DyZiee6-9">
          <mxGeometry relative="1" as="geometry" />
        </mxCell>
        <mxCell id="yQ1UEBd4T4hU5DyZiee6-5" value="Randomize&lt;br&gt;cards" style="rounded=1;whiteSpace=wrap;html=1;absoluteArcSize=1;arcSize=14;strokeWidth=2;" vertex="1" parent="1">
          <mxGeometry x="160" y="10" width="100" height="100" as="geometry" />
        </mxCell>
        <mxCell id="yQ1UEBd4T4hU5DyZiee6-15" style="edgeStyle=orthogonalEdgeStyle;rounded=0;orthogonalLoop=1;jettySize=auto;html=1;exitX=1;exitY=0.5;exitDx=0;exitDy=0;exitPerimeter=0;entryX=0;entryY=0.5;entryDx=0;entryDy=0;entryPerimeter=0;" edge="1" parent="1" source="yQ1UEBd4T4hU5DyZiee6-9" target="yQ1UEBd4T4hU5DyZiee6-10">
          <mxGeometry relative="1" as="geometry" />
        </mxCell>
        <mxCell id="yQ1UEBd4T4hU5DyZiee6-9" value="Draw a card" style="strokeWidth=2;html=1;shape=mxgraph.flowchart.display;whiteSpace=wrap;" vertex="1" parent="1">
          <mxGeometry x="310" y="30" width="100" height="60" as="geometry" />
        </mxCell>
        <mxCell id="yQ1UEBd4T4hU5DyZiee6-32" style="edgeStyle=orthogonalEdgeStyle;rounded=0;orthogonalLoop=1;jettySize=auto;html=1;exitX=1;exitY=0.5;exitDx=0;exitDy=0;exitPerimeter=0;" edge="1" parent="1" source="yQ1UEBd4T4hU5DyZiee6-10" target="yQ1UEBd4T4hU5DyZiee6-30">
          <mxGeometry relative="1" as="geometry" />
        </mxCell>
        <mxCell id="yQ1UEBd4T4hU5DyZiee6-10" value="Choose&lt;br&gt;ability" style="strokeWidth=2;html=1;shape=mxgraph.flowchart.decision;whiteSpace=wrap;" vertex="1" parent="1">
          <mxGeometry x="460" y="10" width="100" height="100" as="geometry" />
        </mxCell>
        <mxCell id="yQ1UEBd4T4hU5DyZiee6-23" style="edgeStyle=orthogonalEdgeStyle;rounded=0;orthogonalLoop=1;jettySize=auto;html=1;exitX=1;exitY=0.5;exitDx=0;exitDy=0;entryX=0;entryY=0.5;entryDx=0;entryDy=0;" edge="1" parent="1" source="yQ1UEBd4T4hU5DyZiee6-16" target="yQ1UEBd4T4hU5DyZiee6-21">
          <mxGeometry relative="1" as="geometry" />
        </mxCell>
        <mxCell id="yQ1UEBd4T4hU5DyZiee6-16" value="Compare&lt;br&gt;cards&lt;br&gt;(win or lose a card)" style="rounded=1;whiteSpace=wrap;html=1;absoluteArcSize=1;arcSize=14;strokeWidth=2;" vertex="1" parent="1">
          <mxGeometry x="760" y="10" width="100" height="100" as="geometry" />
        </mxCell>
        <mxCell id="yQ1UEBd4T4hU5DyZiee6-24" style="edgeStyle=orthogonalEdgeStyle;rounded=0;orthogonalLoop=1;jettySize=auto;html=1;entryX=0.5;entryY=1;entryDx=0;entryDy=0;entryPerimeter=0;exitX=0.5;exitY=1;exitDx=0;exitDy=0;" edge="1" parent="1" source="yQ1UEBd4T4hU5DyZiee6-21" target="yQ1UEBd4T4hU5DyZiee6-9">
          <mxGeometry relative="1" as="geometry">
            <mxPoint x="510" y="90" as="targetPoint" />
            <Array as="points">
              <mxPoint x="950" y="160" />
              <mxPoint x="360" y="160" />
            </Array>
          </mxGeometry>
        </mxCell>
        <mxCell id="yQ1UEBd4T4hU5DyZiee6-25" value="No" style="edgeLabel;html=1;align=center;verticalAlign=middle;resizable=0;points=[];" vertex="1" connectable="0" parent="yQ1UEBd4T4hU5DyZiee6-24">
          <mxGeometry x="-0.9368" y="-3" relative="1" as="geometry">
            <mxPoint as="offset" />
          </mxGeometry>
        </mxCell>
        <mxCell id="yQ1UEBd4T4hU5DyZiee6-26" value="Play again" style="edgeLabel;html=1;align=center;verticalAlign=middle;resizable=0;points=[];" vertex="1" connectable="0" parent="yQ1UEBd4T4hU5DyZiee6-24">
          <mxGeometry x="0.1018" y="1" relative="1" as="geometry">
            <mxPoint as="offset" />
          </mxGeometry>
        </mxCell>
        <mxCell id="yQ1UEBd4T4hU5DyZiee6-29" style="edgeStyle=orthogonalEdgeStyle;rounded=0;orthogonalLoop=1;jettySize=auto;html=1;exitX=1;exitY=0.5;exitDx=0;exitDy=0;entryX=0;entryY=0.5;entryDx=0;entryDy=0;entryPerimeter=0;" edge="1" parent="1" source="yQ1UEBd4T4hU5DyZiee6-21" target="yQ1UEBd4T4hU5DyZiee6-27">
          <mxGeometry relative="1" as="geometry">
            <Array as="points">
              <mxPoint x="1030" y="60" />
              <mxPoint x="1030" y="60" />
            </Array>
          </mxGeometry>
        </mxCell>
        <mxCell id="yQ1UEBd4T4hU5DyZiee6-34" value="Yes" style="edgeLabel;html=1;align=center;verticalAlign=middle;resizable=0;points=[];" vertex="1" connectable="0" parent="yQ1UEBd4T4hU5DyZiee6-29">
          <mxGeometry x="-0.2267" y="2" relative="1" as="geometry">
            <mxPoint as="offset" />
          </mxGeometry>
        </mxCell>
        <mxCell id="yQ1UEBd4T4hU5DyZiee6-21" value="Cards &lt;br&gt;= 0 or 60 ?" style="rhombus;whiteSpace=wrap;html=1;" vertex="1" parent="1">
          <mxGeometry x="910" y="20" width="80" height="80" as="geometry" />
        </mxCell>
        <mxCell id="yQ1UEBd4T4hU5DyZiee6-27" value="End game&lt;br&gt;(Show winner)" style="strokeWidth=2;html=1;shape=mxgraph.flowchart.display;whiteSpace=wrap;" vertex="1" parent="1">
          <mxGeometry x="1040" y="30" width="100" height="60" as="geometry" />
        </mxCell>
        <mxCell id="yQ1UEBd4T4hU5DyZiee6-33" style="edgeStyle=orthogonalEdgeStyle;rounded=0;orthogonalLoop=1;jettySize=auto;html=1;exitX=1;exitY=0.5;exitDx=0;exitDy=0;exitPerimeter=0;entryX=0;entryY=0.5;entryDx=0;entryDy=0;" edge="1" parent="1" source="yQ1UEBd4T4hU5DyZiee6-30" target="yQ1UEBd4T4hU5DyZiee6-16">
          <mxGeometry relative="1" as="geometry" />
        </mxCell>
        <mxCell id="yQ1UEBd4T4hU5DyZiee6-30" value="Show both cards" style="strokeWidth=2;html=1;shape=mxgraph.flowchart.display;whiteSpace=wrap;" vertex="1" parent="1">
          <mxGeometry x="610" y="30" width="100" height="60" as="geometry" />
        </mxCell>
      </root>
    </mxGraphModel>
  </diagram>
</mxfile>
